#!OML:ASF E:\acrobat2\Project_11_07_03\Capture day 1\Session 1\Acrobat.ASF
:FULLY-SPECIFIED
:DEGREES
226
root 10.2934 16.6867 32.2592 -178.923 -0.432091 181.902
lowerback -5.11721 0.138934 0.725519
upperback -3.49914 -0.0502058 0.204383
thorax -0.725526 -0.123498 -0.198191
lowerneck -2.31955 -0.974595 -1.87977
upperneck 9.21052 -1.72531 2.83093
head 3.42449 -0.927708 1.18548
rclavicle 7.45443e-016 -2.98177e-015
rhumerus -45.9154 18.3092 -95.432
rradius 26.3817
rwrist 5.8031
rhand -3.28365 -40.7573
rfingers 7.12502
rthumb 22.4417 -69.4735
lclavicle 7.45443e-016 -2.98177e-015
lhumerus -39.5986 -21.2098 97.3433
lradius 20.9626
lwrist 9.4995
lhand -4.38115 -13.065
lfingers 7.12502
lthumb 21.3879 15.7745
rfemur 13.022 26.8376 0.178511
rtibia -4.77884
rfoot -45.4174 -26.6585
rtoes 21.884
lfemur 12.2311 -20.7941 6.70243
ltibia -6.94975
lfoot -41.0553 -13.4274
ltoes 55.8867
227
root 10.2957 16.6867 32.2461 -178.897 -0.405476 181.917
lowerback -5.23112 0.111698 0.710501
upperback -3.4797 -0.087821 0.221588
thorax -0.642478 -0.141906 -0.174068
lowerneck -2.4417 -0.915402 -1.92044
upperneck 9.59617 -1.67962 2.90861
head 3.58285 -0.910791 1.22148
rclavicle 1.31695e-015 -2.78299e-015
rhumerus -45.7971 18.3669 -95.3899
rradius 26.3235
rwrist 5.80888
rhand -3.26799 -40.5902
rfingers 7.12502
rthumb 22.4567 -69.3046
lclavicle 1.31695e-015 -2.78299e-015
lhumerus -39.5563 -21.2178 97.328
lradius 20.9334
lwrist 9.62691
lhand -4.35814 -13.0805
lfingers 7.12502
lthumb 21.41 15.7566
rfemur 12.984 26.7458 0.157668
rtibia -4.74686
rfoot -45.2969 -26.5474
rtoes 21.8183
lfemur 12.2673 -20.7898 6.70834
ltibia -6.95636
lfoot -41.0075 -13.624
ltoes 55.979
228
root 10.2983 16.6863 32.2328 -178.862 -0.391473 181.926
lowerback -5.35895 0.0867833 0.687651
upperback -3.45853 -0.122135 0.23021
thorax -0.549864 -0.15862 -0.15438
lowerneck -2.53642 -0.870151 -1.91094
upperneck 9.97405 -1.65319 2.93994
head 3.73334 -0.904134 1.23267
rclavicle 5.2181e-016 0
rhumerus -45.6593 18.3924 -95.338
rradius 26.2517
rwrist 5.85
rhand -3.17116 -40.4845
rfingers 7.12502
rthumb 22.5497 -69.1876
lclavicle 5.2181e-016 0
lhumerus -39.4998 -21.2248 97.2934
lradius 20.9017
lwrist 9.70249
lhand -4.33728 -13.0872
lfingers 7.12502
lthumb 21.43 15.7476
rfemur 12.9351 26.6343 0.122014
rtibia -4.70681
rfoot -45.189 -26.4018
rtoes 21.8355
lfemur 12.2865 -20.7756 6.71886
ltibia -6.96109
lfoot -40.9658 -13.7411
ltoes 56.0155
229
root 10.3009 16.6855 32.2188 -178.824 -0.387691 181.915
lowerback -5.49629 0.0658651 0.64233
upperback -3.43787 -0.15021 0.227304
thorax -0.452448 -0.172032 -0.133771
lowerneck -2.59146 -0.837676 -1.86945
upperneck 10.3434 -1.64604 2.94511
head 3.87379 -0.907967 1.22868
rclavicle 0 -2.18663e-015
rhumerus -45.5198 18.3977 -95.2875
rradius 26.1645
rwrist 5.91121
rhand -3.02058 -40.4427
rfingers 7.12502
rthumb 22.6942 -69.1283
lclavicle 0 -2.18663e-015
lhumerus -39.437 -21.2413 97.2533
lradius 20.8647
lwrist 9.74596
lhand -4.30558 -13.0815
lfingers 7.12502
lthumb 21.4605 15.7498
rfemur 12.8861 26.5142 0.061163
rtibia -4.65813
rfoot -45.0979 -26.2245
rtoes 21.9516
lfemur 12.3017 -20.7753 6.70748
ltibia -6.96723
lfoot -40.9611 -13.7493
ltoes 55.965
230
root 10.3035 16.6839 32.2041 -178.784 -0.389626 181.889
lowerback -5.6386 0.0507825 0.580798
upperback -3.42313 -0.170102 0.214728
thorax -0.358296 -0.181492 -0.113683
lowerneck -2.59663 -0.809401 -1.82185
upperneck 10.713 -1.64968 2.95373
head 4.0057 -0.918498 1.22424
rclavicle 7.45443e-017 3.97569e-015
rhumerus -45.3976 18.3962 -95.251
rradius 26.0673
rwrist 5.96738
rhand -2.85917 -40.4786
rfingers 7.12502
rthumb 22.8491 -69.1451
lclavicle 7.45443e-017 3.97569e-015
lhumerus -39.3733 -21.2624 97.2122
lradius 20.8071
lwrist 9.75676
lhand -4.26394 -13.0884
lfingers 7.12502
lthumb 21.5005 15.7383
rfemur 12.8441 26.3959 -0.015319
rtibia -4.60059
rfoot -45.0241 -26.032
rtoes 22.1311
lfemur 12.3198 -20.7999 6.67282
ltibia -6.97838
lfoot -41.0006 -13.6559
ltoes 55.8488
231
root 10.3058 16.6818 32.1885 -178.746 -0.3935 181.855
lowerback -5.77591 0.0401093 0.516548
upperback -3.41564 -0.184193 0.197213
thorax -0.274364 -0.18837 -0.0968643
lowerneck -2.56524 -0.781078 -1.78835
upperneck 11.0974 -1.65962 2.97957
head 4.13724 -0.933923 1.22784
rclavicle 2.16178e-015 -2.5842e-015
rhumerus -45.2884 18.3847 -95.2175
rradius 25.9601
rwrist 6.01717
rhand -2.70418 -40.5381
rfingers 7.12502
rthumb 22.9978 -69.1861
lclavicle 2.16178e-015 -2.5842e-015
lhumerus -39.3096 -21.2711 97.1633
lradius 20.7221
lwrist 9.72299
lhand -4.2099 -13.1207
lfingers 7.12502
lthumb 21.5524 15.7001
rfemur 12.8139 26.2778 -0.093727
rtibia -4.53524
rfoot -44.9497 -25.8539
rtoes 22.2813
lfemur 12.3441 -20.8482 6.62381
ltibia -6.99582
lfoot -41.0734 -13.504
ltoes 55.7076
232
root 10.3075 16.6793 32.1724 -178.715 -0.394081 181.818
lowerback -5.89781 0.0321608 0.45476
upperback -3.40933 -0.194257 0.178999
thorax -0.200195 -0.193269 -0.0819155
lowerneck -2.55234 -0.752305 -1.77526
upperneck 11.5379 -1.67539 3.01348
head 4.29415 -0.954489 1.23775
rclavicle -2.48481e-016 -7.35503e-015
rhumerus -45.1633 18.3553 -95.1628
rradius 25.8368
rwrist 6.08235
rhand -2.55025 -40.5659
rfingers 7.12502
rthumb 23.1455 -69.1954
lclavicle -2.48481e-016 -7.35503e-015
lhumerus -39.2353 -21.2662 97.1014
lradius 20.6173
lwrist 9.66292
lhand -4.10226 -13.1738
lfingers 7.12502
lthumb 21.6558 15.6351
rfemur 12.8021 26.1765 -0.166047
rtibia -4.47738
rfoot -44.8751 -25.7187
rtoes 22.342
lfemur 12.3761 -20.9062 6.5628
ltibia -7.01191
lfoot -41.1545 -13.3531
ltoes 55.585
